<?xml version="1.0" encoding="utf-8"?>
<!-- Generator: Adobe Illustrator 24.0.1, SVG Export Plug-In . SVG Version: 6.00 Build 0)  -->
<svg version="1.1" id="Layer_1" xmlns="http://www.w3.org/2000/svg" xmlns:xlink="http://www.w3.org/1999/xlink" x="0px" y="0px"
	 viewBox="0 0 2041.7834 668.5478" style="enable-background:new 0 0 2041.7834 668.5478;" xml:space="preserve">
<style type="text/css">
	.st0{fill:#D3D3D3;}
</style>
<g>
	<path class="st0" d="M13.5541,502.9363c0.6074-4.5795,1.2327-9.1566,1.8191-13.7388c2.5454-19.8924,9.91-38.2177,18.0736-56.3232
		c47.176-104.6285,97.8949-207.5371,150.2813-309.6342c9.1156-17.7656,18.1755-35.599,28.2384-52.8303
		c15.1278-25.9041,36.6972-44.7193,66.2791-51.8254c42.4689-10.2018,78.0213,2.4789,105.4105,36.3261
		c8.42,10.4053,15.7344,22.0034,21.8401,33.9331c30.9525,60.4766,61.7261,121.0518,91.7947,181.9714
		c20.9259,42.3962,40.815,85.3098,60.766,128.1791c9.7535,20.9577,19.9611,41.8614,27.587,63.6223
		c22.7362,64.878-13.1173,150.7411-94.4902,171.1527c-36.1054,9.0567-70.3665,2.0717-102.9182-14.5077
		c-30.074-15.3176-54.9483-37.4229-78.011-61.7066c-2.2755-2.396-4.2876-5.0422-7.8158-9.2246
		c-2.354,3.3516-3.6458,5.7467-5.4448,7.6664c-18.6255,19.8758-38.5547,38.2468-61.5926,53.0102
		c-29.7491,19.064-61.913,30.2746-97.5953,28.3439c-28.9999-1.5692-54.6793-12.4534-76.8285-31.1781
		c-26.2128-22.1601-40.9478-50.7167-45.8388-84.5226c-0.564-3.8979-1.0386-7.8088-1.5546-11.7137
		C13.5541,507.603,13.5541,505.2697,13.5541,502.9363z M303.2685,244.9011c6.6085,0.5605,12.9806,0.6124,19.1697,1.7027
		c53.0021,9.3371,92.6988,52.892,85.4651,117.4139c-2.8676,25.5784-11.2425,49.5264-22.5715,72.532
		c-14.5011,29.4473-33.0451,56.2436-53.5616,81.7274c-2.5687,3.1907-2.3445,5.0733,0.3269,7.9197
		c15.6477,16.6735,31.8741,32.7148,50.5737,45.9907c23.7777,16.8812,49.284,28.9414,79.4203,28.2642
		c30.1245-0.6769,54.6932-12.813,72.7768-36.5406c23.514-30.8526,26.1462-65.4578,11.1125-100.0941
		c-21.9954-50.6752-45.5928-100.6841-69.6028-150.4484c-28.9413-59.9852-58.8462-119.5091-88.7347-179.0314
		c-8.7262-17.3781-17.6133-34.8937-28.5453-50.8992c-21.0564-30.8285-61.5971-37.7489-91.7975-17.0983
		c-12.7644,8.7281-21.3211,21.0175-28.0964,34.5239c-42.0912,83.9076-84.3331,167.7423-125.8594,251.9295
		c-17.7409,35.9666-34.0834,72.6311-50.6582,109.1614c-8.3865,18.4836-12.2026,38.0871-9.3583,58.3642
		c6.217,44.3204,42.4767,79.6762,91.7985,80.9051c22.7338,0.5665,43.5482-6.5549,63.0218-17.9551
		c25.8858-15.1541,47.4628-35.3591,67.5654-57.3326c2.2426-2.4512,1.5989-4.0665-0.0954-6.4236
		c-11.9507-16.626-24.4546-32.9108-35.4554-50.151c-21.0341-32.9642-37.2463-68.0593-41.6109-107.5204
		c-2.2949-20.7491,0.2695-41.055,9.9831-59.7146C228.4629,263.8452,261.3565,246.6572,303.2685,244.9011z M303.002,491.616
		c1.8405-2.0173,2.8958-3.0219,3.7763-4.1615c15.7019-20.3232,30.1384-41.4955,41.8636-64.3799
		c12.8543-25.088,23.0042-50.9895,21.3538-79.981c-1.0848-19.0565-8.2766-35.2971-23.4064-47.2231
		c-15.5676-12.271-33.5141-15.9056-53.0964-13.4987c-26.8763,3.3034-48.8354,22.0728-54.7838,48.2191
		c-4.0396,17.7564-1.8636,35.3385,3.1619,52.6508c8.3119,28.6335,22.8087,54.1829,39.4995,78.5857
		C288.1124,471.6845,295.3933,481.1732,303.002,491.616z"/>
	<path class="st0" d="M2013.5542,363.9363c-0.7783,5.721-1.5996,11.4366-2.3281,17.1638
		c-6.5776,51.7059-45.2622,92.2969-96.8419,101.5018c-24.764,4.4194-48.45,2.3271-69.7899-12.3999
		c-4.3328-2.9902-8.2068-6.6453-13.5084-10.9906c0,3.761,0.0479,6.4489-0.0092,9.1346
		c-0.1462,6.8774-3.2953,10.0724-10.2002,10.1043c-13.9976,0.0647-27.9989-0.1522-41.9916,0.1192
		c-4.59,0.089-5.9713-1.2405-5.9606-5.905c0.1443-62.6569,0.0963-125.3143,0.0963-187.9716
		c-0.0001-48.6594-0.0013-97.3187,0.002-145.9781c0.0004-6.51,0.0114-6.5243,6.6897-6.528
		c15.3311-0.0086,30.6639,0.1355,45.9918-0.0876c4.428-0.0645,5.7012,1.4341,5.6864,5.7643
		c-0.1335,39.327-0.0853,78.6546-0.0557,117.982c0.0017,2.2292,0.3069,4.4581,0.5398,7.6245
		c1.8481-1.3462,2.9479-1.974,3.8384-2.8218c14.8008-14.0906,32.5492-20.9774,52.8376-21.394
		c48.9269-1.0047,85.6908,19.679,109.6284,62.4053c8.7308,15.5836,13.1545,32.6109,14.0553,50.5155
		c0.131,2.6027,0.8649,5.175,1.3198,7.7613C2013.5542,361.2697,2013.5542,362.603,2013.5542,363.9363z M1831.3137,361.0461
		c0,10.6616,0.6228,21.3709-0.1893,31.9702c-0.6984,9.113,3.2114,15.1733,9.6099,20.6198
		c20.3829,17.3502,43.6572,19.3623,68.0544,11.793c36.5421-11.3373,51.4515-45.0448,43.4324-82.0994
		c-5.7527-26.5817-23.5887-42.0441-49.6506-48.2888c-26.3999-6.3257-49.0315,0.6656-67.7026,20.1668
		c-2.0406,2.1315-3.3019,5.8381-3.3942,8.8609C1831.0974,336.3845,1831.3168,348.7186,1831.3137,361.0461z"/>
	<path class="st0" d="M1319.1252,263.7834c2.3047-1.679,3.308-2.2512,4.1194-3.0246c15.0718-14.3667,33.172-20.9835,53.8257-21.5878
		c35.3977-1.0357,65.8074,10.6228,90.3888,36.0991c18.4989,19.1721,28.821,42.4719,31.8123,69.0079
		c3.201,28.3974-0.6554,55.5516-15.0743,80.5121c-19.826,34.3204-49.8134,53.6493-89.0563,58.7944
		c-21.0919,2.7654-41.236,0.2666-59.5583-11.1921c-5.5781-3.4884-10.4908-8.0405-16.6937-12.8732
		c-0.2067,3.303-0.4579,5.9481-0.5219,8.5977c-0.1854,7.6679-2.7028,10.3182-10.1913,10.3414
		c-13.9996,0.0433-28.0022-0.1375-41.9978,0.1021c-4.3344,0.0742-5.2753-1.5749-5.2723-5.5497
		c0.0826-111.6641,0.0939-223.3282-0.0291-334.9922c-0.0051-4.686,1.4528-5.9888,5.9845-5.9216
		c15.4962,0.2299,31.0006,0.2503,46.496-0.0095c4.7136-0.079,5.8751,1.5443,5.8573,6.0508
		c-0.1548,39.3318-0.089,78.6645-0.0889,117.9969C1319.1252,258.2238,1319.1252,260.3126,1319.1252,263.7834z M1319.1251,361.4361
		c0,10.4973,0.6875,21.0532-0.2021,31.4745c-0.8148,9.5466,3.2675,15.8766,10.127,21.3192
		c1.5654,1.2421,3.1177,2.5087,4.7537,3.6526c15.9607,11.1593,33.7146,13.4832,52.4264,10.1896
		c13.1805-2.32,25.3914-7.2539,35.0846-16.7401c21.9575-21.4884,25.5098-47.63,16.3384-75.5038
		c-8.3322-25.3228-28.1741-37.9035-53.6393-42.0489c-24.8047-4.0378-45.5862,4.0923-62.425,22.4321
		c-1.5769,1.7174-2.311,4.7794-2.3557,7.2367C1319.0032,336.1072,1319.1265,348.7728,1319.1251,361.4361z"/>
	<path class="st0" d="M901,262.3742c0-2.6115-0.0496-5.2241,0.0099-7.8342c0.1454-6.383,2.8417-9.1848,9.1465-9.216
		c14.1632-0.0702,28.3304,0.1451,42.4887-0.1306c4.6923-0.0913,6.0028,1.5392,5.9829,6.0418
		c-0.1414,31.9924-0.0742,63.9858-0.074,95.9789c0.0003,41.3244,0.0026,82.6488-0.0022,123.9731
		c-0.0009,7.2761-0.0148,7.2813-7.0418,7.2832c-13.3304,0.0037-26.6609,0.0174-39.9913-0.0056
		c-7.7378-0.0134-10.4757-2.7771-10.52-10.5194c-0.0141-2.4595-0.0023-4.9192-0.0023-8.8324
		c-2.2479,1.8184-3.5095,2.6947-4.6034,3.7456c-14.895,14.3083-32.9268,21.0594-53.3097,21.5942
		c-33.4822,0.8785-62.8859-9.5733-87.2748-32.8345c-18.8192-17.949-30.1152-40.1687-34.5327-65.6125
		c-5.7282-32.994-0.9375-64.4394,17.2784-92.9596c19.2056-30.0699,46.9866-47.497,82.2253-52.6617
		c19.5566-2.8663,38.9904-2.311,56.9913,7.1092c6.5669,3.4366,12.3826,8.3147,18.5096,12.5803
		c1.1761,0.8188,2.2058,1.848,3.303,2.7802C900.0557,262.6941,900.5279,262.5341,901,262.3742z M900.9954,361.4286
		c0-10.656-0.7388-21.3791,0.2194-31.9482c0.862-9.5088-3.6309-15.2964-10.1613-20.7478
		c-25.4254-21.2244-61.8173-18.8893-86.058-2.2293c-16.2416,11.1624-24.5363,27.3132-26.4215,46.6355
		c-2.0759,21.2771,2.4103,40.8603,17.8461,56.584c12.6941,12.9308,28.6588,18.5765,46.5953,19.928
		c21.949,1.6539,40.2237-5.3171,54.6853-21.8225c1.8708-2.1352,3.0724-5.5702,3.1486-8.4412
		C901.1849,386.7419,900.9943,374.0827,900.9954,361.4286z"/>
	<path class="st0" d="M1581.8921,264.0439c3.0914-2.6208,5.0469-4.3228,7.0485-5.9684
		c14.9612-12.2997,32.2439-18.0999,51.4948-18.8969c23.4426-0.9706,45.2756,3.4563,64.8195,17.2279
		c21.2251,14.9564,32.9059,35.619,33.6274,61.1222c1.2483,44.1076,0.9445,88.2592,1.2684,132.3926
		c0.0587,7.9979-0.1388,16.0004,0.0698,23.9933c0.098,3.7545-1.343,4.936-4.9663,4.9081
		c-15.8292-0.1222-31.6621-0.2035-47.4883,0.045c-4.7112,0.0739-5.8718-1.5808-5.8566-6.0802
		c0.1448-42.8239,0.2261-85.6494-0.0544-128.472c-0.0518-7.9038-1.2264-15.9228-2.9031-23.6679
		c-3.4336-15.8616-13.798-24.9949-29.626-27.8839c-22.9442-4.188-42.7179,2.3275-59.7739,17.9519
		c-3.1688,2.9028-4.4739,6.0997-4.4614,10.4987c0.142,50.1558,0.0914,100.3122,0.0883,150.4684
		c-0.0004,6.7826-0.0105,6.7869-6.8827,6.7881c-15.3301,0.0027-30.662-0.1269-45.9893,0.0841
		c-4.1958,0.0577-5.3823-1.3365-5.3766-5.4445c0.1018-74.1511,0.1023-148.3024-0.0007-222.4534
		c-0.0056-4.1202,1.2126-5.5146,5.386-5.4452c13.1603,0.2189,26.3267,0.0473,39.4905,0.1002
		c6.8579,0.0275,9.3158,2.4832,9.5958,9.2558C1581.5145,257.2959,1581.6819,260.0221,1581.8921,264.0439z"/>
	<path class="st0" d="M1153.0942,263.8375c3.8679-3.1883,6.4681-5.4232,9.1625-7.5381
		c20.156-15.8215,42.9801-20.1783,67.8259-15.6451c2.6029,0.4749,5.1095,0.9415,5.0674,4.8066
		c-0.171,15.6639-0.0669,31.3307-0.0969,46.9964c-0.0016,0.7878-0.3079,1.575-0.4686,2.3453
		c-7.4156-0.8589-14.5984-2.004-21.825-2.4682c-20.6425-1.3261-39.1725,3.9098-54.7434,18.1543
		c-3.347,3.062-4.6619,6.4317-4.6511,10.9644c0.1183,49.6635,0.0747,99.3273,0.073,148.991
		c-0.0004,8.3269-0.0054,8.3296-8.5531,8.3304c-14.8325,0.0014-29.6663-0.1096-44.4966,0.0686
		c-4.1199,0.0495-5.4425-1.3156-5.4368-5.4697c0.1028-74.3289,0.0999-148.658,0.0049-222.9869
		c-0.005-3.9399,1.2347-5.2162,5.16-5.1661c14.3302,0.183,28.6642,0.0458,42.9966,0.0886c7.0228,0.021,9.8921,2.9655,9.9769,10.0517
		C1153.1176,257.6701,1153.0942,259.9798,1153.0942,263.8375z"/>
	<path class="st0" d="M997.9583,361.9381c0-36.8325,0.0787-73.6653-0.0969-110.4969c-0.0226-4.742,1.2271-6.3474,6.1313-6.257
		c15.661,0.2886,31.3317,0.2065,46.9963,0.0382c3.8743-0.0416,5.2042,1.1275,5.1989,5.1187
		c-0.098,74.3315-0.0953,148.6631-0.0048,222.9945c0.0046,3.8656-1.0852,5.2611-5.0952,5.2132
		c-15.8307-0.1895-31.6689-0.2741-47.4956,0.0387c-4.951,0.0978-5.726-1.8466-5.7104-6.1523
		C998.0153,435.6032,997.9583,398.7705,997.9583,361.9381z"/>
	<path class="st0" d="M1026.8478,210.6595c-21.9974-0.054-39.7692-17.692-39.8227-39.5227
		c-0.0535-21.8305,17.8862-39.9968,39.6765-39.6864c20.5626,0.2929,39.8726,14.9693,40.053,39.464
		C1066.9463,196.9737,1045.4403,211.5535,1026.8478,210.6595z"/>
</g>
</svg>
