<?xml version="1.0" encoding="utf-8"?>
<!-- Generator: Adobe Illustrator 24.0.1, SVG Export Plug-In . SVG Version: 6.00 Build 0)  -->
<svg version="1.1" id="Layer_1" xmlns="http://www.w3.org/2000/svg" xmlns:xlink="http://www.w3.org/1999/xlink" x="0px" y="0px"
	 viewBox="0 0 410.1482 74.5791" style="enable-background:new 0 0 410.1482 74.5791;" xml:space="preserve">
<style type="text/css">
	.st0{fill:#D2D2D2;}
	.st1{fill:#FEFEFE;}
	.st2{fill:#ADADAC;}
	.st3{fill:#B5B5B4;}
</style>
<g>
	<path class="st0" d="M55.8693,36.8018c-1.6374-10.4774-0.7423-21.0359-1.0815-31.5549c-0.1263-3.917,1.3261-5.2723,5.2124-5.1404
		c6.6342,0.225,13.2838,0.1586,19.9229,0.0211c3.2637-0.0676,4.8763,0.8727,4.8601,4.4648
		c-0.0984,21.7919-0.0805,43.5846-0.0127,65.3767c0.0095,3.0698-0.9599,4.5824-4.2777,4.5293
		c-7.4703-0.1196-14.945-0.1113-22.4154,0.0037c-2.7228,0.0419-4.0861-1.3395-5.4999-3.4194
		C45.122,60.1144,37.5087,49.2523,29.5764,38.4792c0.9843,10.3348-0.0395,20.5777,0.4388,30.7902
		c0.192,4.1-1.0438,5.4955-5.248,5.2832c-6.6249-0.3345-13.2815-0.1869-19.9205-0.0479c-3.2761,0.0686-4.8628-0.8984-4.8466-4.4788
		C0.0987,48.2341,0.0813,26.4414,0.0127,4.6493C0.003,1.5672,0.9986,0.0774,4.3045,0.1337
		c7.138,0.1217,14.2797,0.0625,21.4196,0.0237c3.1073-0.0169,5.146,1.3156,6.8678,3.9551
		c6.2927,9.6469,12.7813,19.1684,19.2751,28.6838c1.0534,1.5436,1.5555,3.7381,3.931,4.0656
		c0.1537,0.726,0.3066,1.4527,0.4595,2.1794c0.1289-0.0895,0.3365-0.1543,0.3741-0.2725
		C56.9002,37.9235,56.6385,37.2601,55.8693,36.8018z"/>
	<path class="st0" d="M362.7161,51.82c0,6.3863-0.1477,11.9034,0.0569,17.4077c0.1174,3.1589-0.8207,4.4103-4.1795,4.3097
		c-7.1292-0.2135-14.2756-0.2405-21.4025,0.0087c-3.6036,0.126-4.4493-1.2241-4.4278-4.5724
		c0.1283-19.9631,0.0646-39.9275,0.0617-59.8914c-0.0004-2.8598-1.0783-7.4233,0.1995-8.2076
		c2.3178-1.4226,6.0324-0.6788,9.1646-0.6913c10.2885-0.0409,20.5963-0.3983,30.8599,0.1058
		c8.2277,0.4041,16.3996,1.7449,23.0609,7.5096c4.5768,3.9608,7.6094,8.5263,7.4624,14.7724
		c-0.0349,1.4841-0.005,2.9697-0.0052,4.4546c-0.0008,9.3624-2.649,13.3989-11.549,16.6708
		c-3.0404,1.1178-3.1421,1.8949-0.9064,4.0983c6.9454,6.8447,11.8962,15.2828,18.0338,22.7795
		c1.6363,1.9986,1.3112,2.8873-1.2787,2.889c-10.1227,0.0066-20.2459-0.0541-30.3676,0.0456
		c-2.3765,0.0234-2.9119-1.5801-3.9034-3.1139C369.8747,64.6387,367.5338,58.0817,362.7161,51.82z M362.673,26.7302
		c0.4451,2.3907-1.2214,6.0961,3.4914,6.0279c4.3207-0.0626,7.5014-2.8398,7.4977-6.2677
		c-0.0035-3.2688-3.1092-5.3858-7.3624-5.5687C361.3414,20.7084,363.0724,24.2459,362.673,26.7302z"/>
	<path class="st0" d="M135.4057,0.1682c2.1576-0.0002,4.3152-0.0002,6.4729-0.0002c10.726,0,10.5665,0.0628,14.5618,10.0973
		c7.8987,19.8381,15.9225,39.628,24.0645,59.3685c1.6462,3.9912,0.4639,4.9535-3.4554,4.8756
		c-7.7975-0.1551-15.608-0.249-23.3974,0.0446c-3.5997,0.1357-5.45-1.3336-5.76-4.5107c-0.3869-3.9659-2.5648-4.7722-6.0495-4.5419
		c-3.3048,0.2184-6.6652,0.3258-9.9482-0.0178c-5.0464-0.5282-8.7865,0.2929-9.2831,6.2831
		c-0.1649,1.9896-1.6133,2.6961-3.5226,2.693c-8.7964-0.0145-17.5931,0.0412-26.389-0.0165
		c-5.2155-0.0342-2.3277-3.4908-1.7138-5.1162c4.2363-11.2151,8.7546-22.3249,13.1796-33.4696
		c4.1821-10.5327,8.4262-21.0418,12.4978-31.6166c1.0837-2.8145,2.5302-4.3208,5.8003-4.1331
		C126.7645,0.3546,131.0905,0.1683,135.4057,0.1682z M135.5019,26.6812c-1.7587,6.2709-3.2663,11.522-4.6855,16.7965
		c-0.3433,1.2757-0.5487,2.8966,1.3336,3.0801c2.2906,0.2233,4.628,0.1531,6.9308-0.0015c1.2644-0.0849,1.4455-1.1601,1.1599-2.2307
		C138.7501,38.7381,137.2426,33.155,135.5019,26.6812z"/>
	<path class="st0" d="M263.0828,37.0905c-0.0005-10.3975,0.1519-20.7984-0.0753-31.191c-0.0911-4.1688,1.0241-5.8882,5.5646-5.8206
		c15.6001,0.2326,31.2067,0.1747,46.8088,0.0229c3.4176-0.0333,4.7982,0.8976,4.5547,4.4423
		c-0.271,3.9426-0.3117,7.9378,0.0088,11.873c0.3168,3.8899-1.3086,4.7974-4.8869,4.6212
		c-5.2988-0.261-10.6204-0.056-15.9322-0.0719c-2.572-0.0077-5.2142-0.2039-5.1401,3.5718c0.0753,3.8392,2.8807,3.347,5.3415,3.3596
		c4.8138,0.0248,9.6367,0.187,14.4385-0.0526c3.3762-0.1684,4.1377,1.1829,4.1846,4.3129
		c0.2184,14.57,0.3056,14.5684-14.2256,14.569c-1.9919,0.0001-3.9846,0.0387-5.9756-0.0025c-2.3988-0.0496-3.77,0.8871-3.774,3.4531
		c-0.004,2.5489,1.3228,3.5009,3.7412,3.4881c6.3076-0.0334,12.6202,0.1375,18.9214-0.0637c3.2242-0.103,4.4795,0.9014,4.289,4.1988
		c-0.2375,4.1125-0.1302,8.2504-0.034,12.3742c0.0656,2.8082-0.8722,4.3212-3.9724,4.3107
		c-16.5994-0.0564-33.1992-0.0697-49.7984,0.0088c-3.4873,0.0165-4.0865-1.8362-4.0673-4.7262
		C263.1265,58.8761,263.0833,47.9831,263.0828,37.0905z"/>
	<path class="st0" d="M212.878,43.7003c0.1919-5.3099,2.3419-10.1861,3.7335-15.2044c2.2358-8.063,5.1264-15.9444,7.5945-23.9469
		c0.9579-3.1058,2.5627-4.5493,6.0491-4.4526c8.1265,0.2256,16.2636,0.0631,24.3963,0.0802
		c1.8494,0.0039,3.9457-0.3359,2.5324,2.8304c-9.9851,22.3701-19.9617,44.7445-29.7636,67.1941
		c-1.5203,3.482-3.6638,4.522-7.2658,4.3293c-4.9649-0.2656-9.9743-0.3361-14.9283,0.0162
		c-4.1931,0.2982-6.399-1.4574-7.9697-5.0905c-6.1971-14.334-12.5307-28.6097-18.8367-42.897
		c-3.2529-7.3701-6.4531-14.7661-9.8805-22.056c-1.4925-3.1743-1.1371-4.4515,2.691-4.3812
		c8.2959,0.1524,16.5967,0.0598,24.8954,0.0395c1.9447-0.0047,3.4973,0.2501,4.2212,2.5136
		C204.6886,16.2501,209.9218,29.5588,212.878,43.7003z"/>
	<path class="st1" d="M55.8693,36.8018c0.7692,0.4584,1.0309,1.1217,0.7624,1.9668c-0.0376,0.1182-0.2452,0.183-0.3741,0.2725
		c-0.1529-0.7267-0.3057-1.4534-0.4595-2.1794C55.7973,36.8625,55.8693,36.8018,55.8693,36.8018z"/>
</g>
</svg>
