<?xml version="1.0" encoding="utf-8"?>
<!-- Generator: Adobe Illustrator 24.0.1, SVG Export Plug-In . SVG Version: 6.00 Build 0)  -->
<svg version="1.1" id="Layer_1" xmlns="http://www.w3.org/2000/svg" xmlns:xlink="http://www.w3.org/1999/xlink" x="0px" y="0px"
	 viewBox="0 0 378.2277 129.1033" style="enable-background:new 0 0 378.2277 129.1033;" xml:space="preserve">
<style type="text/css">
	.st0{fill:#D2D2D2;}
	.st1{fill:#FEFEFE;}
	.st2{fill:#ADADAC;}
	.st3{fill:#B5B5B4;}
</style>
<g>
	<path class="st2" d="M301.4742,1.8244c-4.6393,25.6603-1.9158,51.5532-2.4813,77.3415c-0.1585,7.2288,7.4496,3.254,10.7469,7.2802
		c-7.9834,3.6435-15.9868,1.676-23.7086,1.7899c-3.5666,0.0526-1.8902-2.6333-1.777-4.5236
		c1.3805-23.0545-1.3984-46.231,2.1156-69.2361c0.3996-2.616,0.8308-5.8698-3.4257-6.3788
		c-9.3897-1.1229-0.3991-4.1849-0.6683-6.273C288.6752,1.8244,295.0747,1.8244,301.4742,1.8244z"/>
	<path class="st3" d="M376.1349,37.6463c-4.1048,0.4046-8.2019,0.9706-12.3169,1.1647c-3.5202,0.166-4.9733-2.4607-5.1977-5.3
		c-0.2959-3.742,3.5643-3.0219,5.2913-3.1335c4.0363-0.2609,8.1443,0.5629,12.2233,0.9473
		C376.1349,33.4319,376.1349,35.5391,376.1349,37.6463z"/>
	<path class="st2" d="M279.7855,33.413c-3.2796,3.9966-7.9294,3.5352-12.0605,5.5574c8.9918,12.5407,7.3142,23.6582-4.7022,33.1859
		c-4.9059,3.8899-4.3813,7.4876,0.6398,10.8262c1.1783,0.7835,2.3699,1.5603,3.4699,2.444
		c15.7007,12.6133,13.5116,30.1764-5.2373,38.0015c-11.1041,4.6345-23.0201,4.828-34.1314-0.0355
		c-13.6079-5.9563-14.5501-20.5183-2.497-29.2233c4.7258-3.413,10.1313-4.7787,15.708-5.9856
		c2.4075-0.521,7.773,2.0412,6.061-3.9659c-0.9638-3.3818,0.4922-7.9973-6.3409-8.9496
		c-11.8289-1.6485-18.2554-9.8435-17.9399-19.8736c0.3378-10.7413,10.3505-21.1658,22.2067-21.8427
		C256.2529,32.9072,267.6115,33.413,279.7855,33.413z M249.7538,119.8927c11.1099,0.0683,17.7235-4.4915,17.5764-12.1182
		c-0.1263-6.5496-9.9869-15.2351-17.3862-15.3142c-10.8075-0.1155-20.8715,6.5007-20.8466,13.7049
		C229.124,113.8416,238.1217,119.8212,249.7538,119.8927z M235.2947,51.5732c1.3325,7.9128,3.9543,15.4395,12.3429,19.1637
		c4.231,1.8784,7.649-0.6025,10.2878-3.5704c6.2113-6.9857,1.7341-13.7594-0.8098-20.5164
		c-0.2452-0.6513-0.5309-1.3349-0.9731-1.8591c-3.1767-3.7656-6.3092-8.422-12.1047-6.6315
		C237.9574,40.0381,235.5449,45.1119,235.2947,51.5732z"/>
	<path class="st2" d="M55.2197,66.6655c8.1259-6.7861,10.9978-7.2123,31.8989-5.0644c-0.0034,4.0093-4.4552,6.706-3.285,11.1766
		c3.1703,12.1125-4.0199,15.9932-14.5051,17.1479c-11.1918,1.2325-22.1533,3.9416-33.6598,0.9808
		C16.8147,86.055,4.3116,72.6399,2.9332,54.3711c-1.463-19.3896,8.8924-36.9774,26.2838-43.9212
		c16.3609-6.5324,32.5723-4.9539,48.365,2.0909c2.214,0.9876,6.8262,1.7366,5.0793,5.2384
		c-1.9598,3.9284-5.4262,7.8951-10.0131,8.821c-4.7194,0.9526-1.2795-3.3615-2.2264-5.0893
		c-7.1918-13.1222-36.0931-11.89-46.8087,2.0709c-8.9029,11.5992-8.7643,31.2487,0.3208,45.4831
		c7.6609,12.003,24.7796,19.19,38.765,16.9296c8.1052-1.31,8.5621-6.2367,8.5091-12.7908c-0.061-7.5495-5.0009-6.0524-9.4543-6.1308
		C59.7761,67.0382,57.8018,66.8328,55.2197,66.6655z"/>
	<path class="st2" d="M122.754,31.3069c17.3922,0.0132,31.617,12.9444,31.5449,28.6765
		c-0.0784,17.124-14.2553,30.3519-32.5361,30.3582c-17.4298,0.006-31.3455-12.7519-31.3923-28.7805
		C90.3199,44.2156,104.1522,31.2928,122.754,31.3069z M104.9504,54.287c-0.3755,9.5642,1.3361,18.0697,7.4374,25.0041
		c4.0408,4.5926,8.8795,7.5084,15.7888,5.3555c7.0959-2.211,10.3405-6.9901,11.093-13.7375
		c0.8656-7.7613-0.3583-15.2249-3.7658-22.4002c-3.5504-7.4763-8.3731-13.6186-17.5075-11.9992
		C108.2084,38.2449,103.7408,44.8934,104.9504,54.287z"/>
	<path class="st2" d="M187.07,90.3414c-18.1414-0.0555-30.5358-11.8709-30.5883-29.1594
		c-0.0537-17.6646,13.2847-29.4261,32.4731-30.0195c17.5665-0.5432,29.4218,11.7086,31.1639,29.2328
		C221.7031,76.3328,205.3291,90.3972,187.07,90.3414z M205.5386,64.109c-0.8755-5.8215-2.1171-13.3973-6.534-19.9931
		c-3.5378-5.283-8.7752-8.864-15.0451-7.9135c-6.0389,0.9155-10.5856,4.8063-12.9283,11.1486
		c-3.5049,9.4888-0.1689,17.9667,3.5023,26.148c3.2351,7.2095,8.6072,13.6523,17.8274,11.5444
		C202.0358,82.8314,205.5491,75.3178,205.5386,64.109z"/>
	<path class="st2" d="M354.6808,83.2672c-12.9868,12.2369-34.0287,9.3635-43.2682-5.9172
		c-6.5981-10.9123-6.8482-22.6615-0.0699-33.8597c6.2105-10.2602,16.092-12.9075,27.4918-12.2205
		c4.8798,0.2941,9.0146,2.1873,12.5135,5.2015c7.7351,6.6635,6.9921,10.7172-2.5648,14.5833
		c-7.5294,3.0458-15.0281,6.2965-22.8059,8.5702c-6.1723,1.8044-5.906,4.6528-3.4209,9.1904
		c4.7572,8.686,11.3031,14.1877,21.9822,13.6227C347.5928,82.2762,350.8093,81.0746,354.6808,83.2672z M329.6318,37.292
		c-4.3765-0.2084-7.5934,3.5453-9.8505,8.6981c-1.3106,2.9921-2.5749,7.1066-0.392,8.8267
		c4.2513,3.3498,8.0908-1.6298,12.2408-2.5371c1.3288-0.2905,2.563-1.114,3.7712-1.8109c3.0875-1.7811,8.318-2.1399,6.469-7.6243
		C340.289,38.1542,335.9738,37.3996,329.6318,37.292z"/>
	<path class="st2" d="M357.8864,78.563c0.2787,0.294,0.7592,0.6149,0.7095,0.782c-0.1754,0.5897-0.5323,1.1266-0.8204,1.6835
		c-0.2675-0.2204-0.7978-0.5233-0.7579-0.6473C357.2148,79.7682,357.5627,79.2023,357.8864,78.563z"/>
</g>
</svg>
