<?xml version="1.0" encoding="utf-8"?>
<!-- Generator: Adobe Illustrator 24.0.1, SVG Export Plug-In . SVG Version: 6.00 Build 0)  -->
<svg version="1.1" id="Layer_1" xmlns="http://www.w3.org/2000/svg" xmlns:xlink="http://www.w3.org/1999/xlink" x="0px" y="0px"
	 viewBox="0 0 378.2277 102.2753" style="enable-background:new 0 0 378.2277 102.2753;" xml:space="preserve">
<style type="text/css">
	.st0{fill:#D2D2D2;}
	.st1{fill:#FEFEFE;}
	.st2{fill:#ADADAC;}
	.st3{fill:#B5B5B4;}
</style>
<g>
	<path class="st2" d="M302.1961,2.5223c0.2642,2.9408,0.7463,5.8808,0.7571,8.8225c0.0695,18.9258,0.0084,37.852,0.0563,56.7779
		c0.0113,4.448,0.2357,8.8971,0.4375,13.3423c0.1434,3.1613,1.7037,4.5378,4.9182,4.8343c0.6295,0.0581,1.5189,0.7703,1.7216,1.3708
		c0.8687,2.5743,1.5257,5.2196,2.3326,8.099c-3.6136,1.5109-7.3784,2.143-11.2157,1.7847
		c-9.9603-0.9299-14.9505-6.3925-14.9764-16.3802c-0.0526-20.2618,0.0271-40.5241-0.0568-60.7857
		c-0.0162-3.9125-0.4947-7.826-0.8346-11.7326c-0.1283-1.475,0.1497-2.2224,1.8584-2.5483
		c4.4978-0.8577,8.9433-1.9896,13.404-3.0361c0.4044-0.0949,0.7682-0.3616,1.1509-0.5485
		C301.8981,2.5223,302.0471,2.5223,302.1961,2.5223z"/>
	<path class="st2" d="M267.3391,2.5223c0.1807,5.2467,0.4861,10.4926,0.5202,15.7403c0.1355,20.8483,0.1743,41.6972,0.2798,62.5457
		c0.0186,3.6684,1.5179,5.1058,5.2064,5.4655c0.5251,0.0512,1.2634,0.654,1.4308,1.1575c0.7669,2.3063,1.4389,4.6519,1.9697,7.0224
		c0.121,0.5406-0.3266,1.6781-0.7288,1.7937c-5.3697,1.5438-10.7843,2.1646-16.13-0.0951
		c-6.5493-2.7684-8.8665-8.204-8.9334-14.8004c-0.1128-11.129-0.0438-22.2598-0.0478-33.3899
		c-0.0031-8.6073,0.0894-17.2159-0.0373-25.8213c-0.0684-4.6461-0.4652-9.2898-0.8065-13.9278
		c-0.0983-1.3351,0.3618-1.7792,1.6417-2.0454c4.5521-0.947,9.0759-2.03,13.6045-3.0865c0.4007-0.0935,0.7589-0.3681,1.1369-0.5586
		C266.7433,2.5223,267.0412,2.5223,267.3391,2.5223z"/>
	<path class="st2" d="M20.0103,36.8906c4.8093-4.1827,10.0755-6.3411,16.491-6.3204c6.6842,0.0215,11.1099,3.4432,14.6182,7.7432
		c3.8244-2.3104,7.1565-5.2205,11.0281-6.4683c7.2079-2.323,14.5522-2.2713,20.8446,2.9756
		c2.845,2.3723,4.0419,5.7307,4.1051,9.2816c0.231,12.9789,0.2815,25.961,0.3806,38.9421c0.0322,4.2138,0.0051,8.428,0.0051,12.7726
		c-5.4795,0-10.717,0-16.2154,0c0-0.936,0.0001-1.8026,0-2.6693c-0.0028-14.0236,0.0018-28.0471-0.0116-42.0707
		c-0.0061-6.3681-2.9622-8.527-8.9708-6.3231c-2.2604,0.8291-4.3324,2.1981-6.4338,3.4175c-1.3684,0.7941-1.5748,2.134-1.569,3.6503
		c0.0518,13.5037,0.0414,27.0075,0.0493,40.5114c0.0006,1.1013,0.0001,2.2025,0.0001,3.4596c-5.276,0-10.3062,0-15.6968,0
		c0-0.7939,0-1.6468,0-2.4996c0-13.6526,0.0363-27.3053-0.0419-40.9575c-0.0108-1.8778-0.2661-3.8961-1.0184-5.5782
		c-0.5071-1.1339-1.9861-2.3434-3.2048-2.5647c-4.8848-0.8869-9.0073,1.0654-12.5081,4.3195
		c-0.5636,0.5238-0.6358,1.7598-0.6388,2.6675c-0.047,14.023-0.0449,28.0462-0.0541,42.0693
		c-0.0005,0.8013-0.0001,1.6026-0.0001,2.553c-5.4124,0-10.5889,0-16.0513,0c-0.053-0.8006-0.154-1.6507-0.1588-2.5014
		c-0.0933-16.4702-0.1037-32.9415-0.3234-49.41c-0.0413-3.0954-0.9085-6.1798-1.4287-9.4857
		c4.2334-1.1634,8.7579-2.4559,13.3219-3.5905c0.4959-0.1233,1.5361,0.5234,1.7786,1.0584
		C19.0012,33.4047,19.4149,35.0629,20.0103,36.8906z"/>
	<path class="st2" d="M319.5907,39.1672c6.929-4.034,13.8894-7.1965,21.5902-8.4755c5.0377-0.8367,10.068-0.7098,15.0529,0.4808
		c8.1748,1.9524,13.2296,7.9928,13.2856,16.3795c0.058,8.6803-0.1972,17.3625-0.2999,26.0441
		c-0.0202,1.7057-0.0151,3.4141,0.0574,5.1179c0.185,4.3464,2.0559,7.8044,5.9043,10.4088c-2.7642,3.2261-5.401,6.388-8.1733,9.427
		c-0.3282,0.3598-1.6222,0.3447-2.0883-0.003c-2.6962-2.011-5.2783-4.1739-8.0933-6.442c0.0184-0.014-0.4355,0.2398-0.7755,0.6003
		c-7.512,7.9622-23.4539,6.8455-30.3247,1.9706c-4.7027-3.3366-7.0431-7.9309-7.3052-13.5542
		c-0.1856-3.9826-0.2986-7.9872,1.3513-11.8132c2.8127-6.5223,8.1656-9.9797,14.7248-11.3242
		c5.41-1.109,11.0231-1.2372,16.548-1.7815c0.6427-0.0633,1.297-0.0086,2.428-0.0086c-0.2919-2.9191-0.3282-5.652-0.8933-8.2715
		c-0.5711-2.6474-2.7252-3.9209-5.6863-4.1004c-6.4682-0.3919-11.9704,2.2666-17.3349,5.378
		c-0.8932,0.5181-1.7551,1.0897-2.8559,1.7768C324.3706,47.1045,322.0641,43.2745,319.5907,39.1672z M352.7908,67.8976
		c-2.4402,0-4.6731-0.2071-6.8543,0.0398c-5.9488,0.6734-10.2383,2.5204-9.9449,10.0383c0.1582,4.0533,2.3455,7.3663,5.7328,8.2952
		c3.1912,0.8751,9.1973-1.5556,10.7922-4.3917c0.1702-0.3027,0.2614-0.6911,0.2628-1.0402
		C352.797,76.6236,352.7908,72.4081,352.7908,67.8976z"/>
	<path class="st2" d="M155.4874,63.3648c0.1284,7.8253-1.0268,15.3148-5.5806,21.9796
		c-5.4231,7.937-12.8637,11.8144-22.5299,12.0022c-8.747,0.1699-16.2497-2.3129-22.1489-8.8831
		c-4.4066-4.9079-6.6182-10.8737-7.5187-17.269c-1.1736-8.3345-0.4427-16.4742,2.9592-24.3398
		c5.3532-12.3775,17.0212-17.5648,28.9873-16.4492c15.0905,1.407,25.127,13.9808,25.8234,28.9521
		C155.5411,60.6906,155.4874,62.029,155.4874,63.3648z M137.8204,64.8369c-0.5232-5.002-0.7089-8.8452-1.3771-12.6033
		c-0.7167-4.0311-2.2992-7.7417-6.6452-9.2276c-5.8198-1.9898-11.1576,1.1651-12.6714,7.5988
		c-2.1286,9.0465-1.9339,18.1481,0.0058,27.1974c0.9685,4.5182,4.6011,7.5019,8.8666,7.6643
		c4.8064,0.183,8.2345-2.0132,9.4767-6.9682C136.6835,73.6809,137.1848,68.6876,137.8204,64.8369z"/>
	<path class="st2" d="M190.2998,43.1483c-9.5606,0-18.5428,0-27.6996,0c0-3.8821,0-7.5522,0-11.3999c15.6728,0,31.4099,0,47.6241,0
		c-0.7089,4.7564,1.3813,9.5984-2.0515,14.3398c-8.6283,11.9174-16.8615,24.1191-25.2432,36.2136
		c-0.4019,0.58-0.7085,1.2256-1.2376,2.1528c9.9349,0,19.559,0,29.6236,0c-1.3283,3.8529-2.5148,7.3743-3.7916,10.8628
		c-0.1164,0.318-0.8118,0.6045-1.2385,0.6047c-15.3318,0.0057-30.6636-0.0243-45.9955-0.0534
		c-0.0641-0.0001-0.1282-0.0569-0.4758-0.2215c0-3.0216-0.0569-6.1876,0.0466-9.3485c0.0215-0.6552,0.5691-1.3409,0.992-1.9284
		c9.3349-12.9691,18.6881-25.9249,28.0285-38.89C189.3008,44.898,189.6321,44.2527,190.2998,43.1483z"/>
	<path class="st2" d="M236.7493,95.849c-5.4153,0-10.6756,0-16.2275,0c-0.0611-0.7513-0.178-1.5244-0.1788-2.2977
		c-0.02-19.5041-0.0157-39.0082-0.0599-58.5121c-0.0036-1.6089,0.1648-2.4823,2.181-2.7011
		c4.3286-0.4696,8.6102-1.3659,12.915-2.0637c0.4114-0.0667,0.8502,0.034,1.3703,0.0621
		C236.7493,52.1652,236.7493,73.8768,236.7493,95.849z"/>
	<path class="st2" d="M228.6368,23.7996c-5.7263,0.0024-10.3254-4.6052-10.275-10.2939
		c0.0484-5.4673,4.8837-10.2673,10.4335-10.3575c5.4084-0.0879,10.2869,4.9048,10.2238,10.4631
		C238.9538,19.3523,234.4243,23.7972,228.6368,23.7996z"/>
</g>
</svg>
