<?xml version="1.0" encoding="utf-8"?>
<!-- Generator: Adobe Illustrator 24.0.1, SVG Export Plug-In . SVG Version: 6.00 Build 0)  -->
<svg version="1.1" id="Layer_1" xmlns="http://www.w3.org/2000/svg" xmlns:xlink="http://www.w3.org/1999/xlink" x="0px" y="0px"
	 viewBox="0 0 417.8471 137.1465" style="enable-background:new 0 0 417.8471 137.1465;" xml:space="preserve">
<style type="text/css">
	.st0{fill:#D2D2D2;}
	.st1{fill:#FEFEFE;}
	.st2{fill:#ADADAC;}
	.st3{fill:#B5B5B4;}
</style>
<g>
	<path class="st0" d="M314.2438,73.6594c0-7.4796-0.0006-14.9591,0.0005-22.4387c0.0002-1.5287,0.2087-1.7399,1.7142-1.7411
		c2.416-0.002,4.8321-0.0058,7.2481,0.0012c1.9041,0.0055,2.3948,0.5022,2.4279,2.3709c0.0071,0.4014-0.2015,0.9811,0.1356,1.1677
		c0.4463,0.247,0.7787-0.3381,1.0739-0.5964c2.4014-2.1016,5.1873-3.4003,8.3146-3.8678c6.3152-0.944,12.1929,0.0282,17.2869,4.1993
		c3.7744,3.0905,5.5709,7.033,5.7484,11.9214c0.2764,7.6122-0.0229,15.2249,0.2145,22.8305
		c0.0934,2.9938,0.0724,5.9846,0.1345,8.9761c0.0251,1.2081-0.1678,1.381-1.3701,1.3829c-3.0718,0.0049-6.1437,0.0042-9.2155,0.0005
		c-1.36-0.0016-1.6111-0.2565-1.6118-1.6394c-0.0045-9.0995,0.0365-18.1995-0.0387-27.2984
		c-0.0186-2.2594-0.4084-4.5139-1.6632-6.5058c-1.0859-1.7237-2.742-2.5827-4.6547-2.9564
		c-4.8285-0.9434-9.0645,0.2195-12.6391,3.6632c-0.6432,0.6197-0.9177,1.2921-0.9157,2.1907
		c0.0221,10.237,0.0143,20.474,0.0138,30.711c0,1.639-0.1862,1.8498-1.8509,1.821c-1.5464-0.0267-3.092-0.0237-4.6415-0.1128
		c-1.2796-0.0736-2.602,0.1231-3.9091,0.1211c-1.5943-0.0024-1.802-0.203-1.8021-1.7622
		C314.2433,88.6186,314.2438,81.139,314.2438,73.6594z"/>
	<path class="st0" d="M236.9802,53.2266c2.0702-1.6713,3.9578-3.1636,6.2686-3.9835c2.6035-0.9238,5.2639-1.2729,8.0103-0.8572
		c0.5083,0.0769,1.0204,0.1344,1.5327,0.1765c0.9332,0.0765,1.1423,0.6542,1.1861,1.4847c0.0802,1.5199-0.1788,3.0164-0.2209,4.5273
		c-0.0347,1.2457,0.2578,2.4608,0.2072,3.7007c-0.0573,1.404-0.1497,1.4945-1.4833,1.3414
		c-2.6253-0.3014-5.2397-0.6681-7.8804-0.0269c-2.4253,0.5889-4.5832,1.6323-6.4581,3.2886
		c-0.8401,0.7422-1.1732,1.6009-1.1703,2.721c0.0263,10.1653,0.0156,20.3307,0.0152,30.496
		c-0.0001,1.7434-0.0295,1.7716-1.8196,1.7718c-2.9675,0.0003-5.935,0.0018-8.9025-0.0008
		c-1.2354-0.0011-1.4851-0.2185-1.4855-1.4126c-0.0057-15.1964-0.0055-30.3927,0.0002-45.5891
		c0.0004-1.0912,0.3127-1.3791,1.4451-1.3828c2.6569-0.0086,5.3139-0.0045,7.9709-0.0023c2.2086,0.0019,2.7412,0.5238,2.7836,2.7194
		C236.9847,52.468,236.9802,52.7372,236.9802,53.2266z"/>
	<path class="st0" d="M204.687,73.6565c0-7.4401-0.0003-14.8802,0.0002-22.3203c0.0001-1.6976,0.1681-1.8583,1.9108-1.8576
		c2.8973,0.0012,5.7946-0.0022,8.6919,0.0016c1.3315,0.0018,1.5995,0.2546,1.5997,1.5405
		c0.0027,15.0868,0.0025,30.1737,0.0004,45.2605c-0.0002,1.3098-0.2647,1.5554-1.5643,1.5821
		c-1.6184,0.0332-3.219-0.3025-4.8424-0.1953c-1.405,0.0928-2.8131,0.1567-4.2207,0.1844
		c-1.2967,0.0256-1.5736-0.2698-1.5742-1.5658C204.6855,88.7434,204.687,81.1999,204.687,73.6565z"/>
	<path class="st0" d="M218.9762,34.3393c0.2014,4.6898-3.7959,8.1118-7.9954,8.084c-4.8689-0.0323-8.4583-3.3981-8.5131-8.2282
		c-0.0505-4.4611,3.7084-8.2931,8.3936-8.1838C214.9908,26.1078,219.2989,29.5751,218.9762,34.3393z"/>
	<path class="st0" d="M119.2668,94.1478c-1.296-3.7089-2.9603-7.2614-4.6224-10.8105c-4.1024-8.7598-8.1608-17.5423-12.4187-26.2267
		C95.6884,43.777,88.9804,30.5274,82.1513,17.3396c-2.1685-4.1876-4.7-8.1008-8.452-11.0653
		c-2.9443-2.3264-6.2308-3.9002-10.0447-4.1732c-0.5555-0.0704-1.1525,0.2091-1.6679-0.1978c-0.4142,0-0.8284,0-1.2426,0
		c-0.5167,0.402-1.1122,0.1306-1.6685,0.1945c-4.1582,0.3271-7.8933,1.7518-11.2061,4.2875
		c-3.4579,2.6468-5.6207,6.2795-7.6318,10.0181c-2.9375,5.4609-5.6785,11.0234-8.525,16.5311
		c-2.7686,5.3571-5.4636,10.7501-8.1376,16.1533c-3.1923,6.4504-6.3344,12.9265-9.4175,19.4296
		c-3.0219,6.3741-5.9568,12.7896-8.9014,19.2C3.6046,91.3132,2.095,94.962,1.4003,98.893c-0.1829,1.0353-0.1362,2.1077-0.5087,3.111
		c0,1.0341,0,2.0682,0,3.1023c0.062,0.1182,0.1678,0.2322,0.1796,0.3552c0.3959,4.1594,1.5328,8.0837,3.6738,11.6973
		c3.2577,5.4985,7.8919,9.4079,13.8113,11.7587c4.5377,1.8021,9.2534,2.1439,14.0789,1.4435
		c4.252-0.6172,8.1825-2.0906,11.8977-4.1937c3.2152-1.8201,6.1907-3.9685,8.9564-6.4233c2.4197-2.1477,4.853-4.2748,6.8141-6.8685
		c0.3324-0.4397,0.4646-0.5195,0.8712-0.0382c2.3825,2.8199,5.0663,5.3362,7.8808,7.7239c3.8083,3.231,7.961,5.8954,12.5879,7.7963
		c5.5764,2.2908,11.325,3.0889,17.261,1.7597c8.4722-1.8972,14.7316-6.7288,18.7537-14.4052
		c1.7085-3.2606,2.6227-6.7526,2.9879-10.4309C121.0271,101.4417,120.5302,97.7631,119.2668,94.1478z M61.9412,99.1859
		c-0.0414,0.055-0.0784,0.1134-0.1211,0.1673c-0.872,1.1005-0.9225,1.1074-1.7811-0.0192
		c-3.5906-4.7115-6.9708-9.5626-9.4505-14.9672c-2.0314-4.4276-3.6481-8.9933-3.4934-13.9592
		c0.2141-6.8708,4.6526-12.0466,11.4097-13.1105c0.8606-0.1355,1.7094-0.1477,2.5811-0.2042
		c5.3578,0.1171,9.5837,2.2649,12.1577,7.0825c1.351,2.5285,1.6225,5.3056,1.4214,8.1829
		c-0.4787,6.8498-3.5494,12.6948-6.9346,18.431C65.9996,93.7218,63.9888,96.4679,61.9412,99.1859z M108.301,116.0653
		c-3.2013,3.9484-7.3543,6.1707-12.333,6.7831c-4.1318,0.5082-8.1383-0.1724-11.9562-1.8787
		c-4.7751-2.1342-8.8798-5.2203-12.6089-8.8372c-1.4357-1.3925-2.8362-2.8211-4.2456-4.2404
		c-0.9189-0.9254-0.9258-1.1131-0.0948-2.1659c2.9422-3.7271,5.7639-7.5385,8.1522-11.6512
		c3.1763-5.4696,5.8967-11.1323,6.9967-17.4244c0.9796-5.6036,0.8392-11.1167-2.0193-16.2363
		c-3.2949-5.9012-8.4059-9.3086-15.0093-10.5317c-5.1387-0.9518-10.1313-0.3284-14.7343,2.0893
		c-6.5707,3.4513-10.3544,8.9734-11.2474,16.3798c-0.6548,5.4307,0.6477,10.5794,2.4864,15.6053
		c2.6765,7.3162,7.0371,13.6695,11.6572,19.8604c0.596,0.7986,1.1784,1.6074,1.7753,2.4053
		c0.3334,0.4457,0.3484,0.8758-0.0013,1.3179c-0.1277,0.1614-0.2144,0.3587-0.355,0.5062
		c-4.6971,4.9281-9.6465,9.554-15.8436,12.5834c-3.2446,1.5861-6.6658,2.5836-10.3422,2.4946
		c-5.7158-0.0679-10.6243-2.0639-14.537-6.2643c-2.6968-2.8951-4.2527-6.3738-4.8677-10.2819
		c-0.7226-4.5917,0.3576-8.8582,2.2572-12.9947c3.7486-8.163,7.4717-16.3355,11.4458-24.3953
		c5.287-10.7222,10.6922-21.3849,16.0106-32.0911c2.652-5.3386,5.3286-10.665,8.0084-15.9896
		c1.0676-2.1212,2.1709-4.2316,3.747-6.0322c2.5323-2.893,5.7037-4.6398,9.5696-4.8857c6.2053-0.3948,10.4642,2.6326,13.4653,7.8163
		c5.1828,8.952,9.5184,18.3384,14.1783,27.5576c3.3712,6.6696,6.6505,13.3869,9.8743,20.1289
		c3.4736,7.2641,6.8772,14.5625,10.2253,21.8851c1.4427,3.1555,3.0092,6.27,4.0821,9.5807
		C114.2997,104.14,112.8902,110.4053,108.301,116.0653z"/>
	<path class="st0" d="M414.4766,68.6238c-0.9868-6.2392-4.2042-11.2133-8.9525-15.2198c-4.1323-3.4868-9.1024-4.8707-14.4068-5.1523
		c-4.5628-0.2422-8.7222,0.9055-12.3019,3.8592c-0.4058,0.3348-0.7657,1.1403-1.2299,0.89
		c-0.4556-0.2457-0.1736-1.0729-0.1745-1.6402c-0.0126-7.8588-0.0076-15.7177-0.0096-23.5766
		c-0.0004-1.5176-0.1636-1.6822-1.6376-1.682c-2.5197,0.0004-5.0393,0.0099-7.5589,0.0046
		c-3.0141-0.0064-3.0141-0.0114-3.0141,3.0002c0,22.2668-0.0002,44.5336,0.0005,66.8005c0.0001,1.7803,0.1762,1.901,1.9431,1.9699
		c1.2808,0.05,2.5336-0.3627,3.8079-0.1704c1.6476,0.2487,3.2846,0.222,4.9288-0.0303c0.745-0.1143,1.1347-0.5027,1.3433-1.2205
		c0.2236-0.7695,0.1278-1.5571,0.2361-2.5315c2.0352,1.8923,4.1223,3.3257,6.5693,4.1702c3.2611,1.1254,6.5762,1.1528,9.9645,0.6346
		c5.2856-0.8084,9.8293-3.0842,13.629-6.7697c3.6599-3.5498,5.8943-7.9338,6.8022-12.9402c0.335-1.8472,0.7397-3.7192,0.652-5.6072
		C414.9932,71.8102,414.7278,70.2124,414.4766,68.6238z M401.5757,79.7487c-1.7328,3.8226-4.7898,6.071-8.7912,7.1951
		c-3.4527,0.9698-6.8359,1.0457-10.1473-0.473c-1.5737-0.7217-3.0127-1.6707-4.1691-2.9744
		c-0.7252-0.8176-1.1068-1.7822-1.0878-2.9208c0.0395-2.3751,0.012-4.7513,0.012-7.127c0.0035,0,0.007,0,0.0104,0
		c0-2.3069,0.054-4.6155-0.02-6.92c-0.045-1.4069,0.5057-2.4526,1.5181-3.3331c2.9705-2.5836,6.3611-4.117,10.3623-3.7731
		c5.005,0.4301,9.277,2.2656,11.8576,6.8842c0.7731,1.3836,1.16,2.9254,1.4532,4.4874
		C403.1543,73.8853,402.871,76.8913,401.5757,79.7487z"/>
	<path class="st0" d="M308.3795,68.3237c-1.1464-6.7404-4.6815-12.0624-10.292-15.9269
		c-4.9188-3.3881-10.4274-4.5921-16.3738-3.9942c-3.1392,0.3157-5.9254,1.377-8.4281,3.2869
		c-0.5884,0.449-0.9779,1.1732-1.9265,1.4055c0-0.4728,0-0.8495,0-1.2261c0-8.0629,0.0015-16.1257-0.0015-24.1886
		c-0.0005-1.2994-0.2766-1.575-1.5714-1.577c-3.0018-0.0048-6.0036-0.0042-9.0054-0.0003c-1.369,0.0017-1.6248,0.2567-1.6249,1.627
		c-0.0014,22.8447-0.0015,45.6895,0.0002,68.5342c0.0001,1.3478,0.2601,1.5587,1.653,1.6055
		c1.2417,0.0417,2.4862-0.2623,3.699-0.1267c1.4513,0.1624,2.8939,0.1429,4.3308,0.0879c1.847-0.0706,2.3016-0.6518,2.3203-2.527
		c0.0007-0.0689-0.0084-0.1392,0.0022-0.2065c0.046-0.2928-0.1406-0.6856,0.1782-0.8574c0.4011-0.2162,0.603,0.2085,0.8448,0.4199
		c1.6993,1.4851,3.5508,2.701,5.7132,3.4266c3.2347,1.0854,6.5026,1.1486,9.8582,0.6417
		c8.2949-1.2532,14.3415-5.6159,18.2384-12.9709C308.9105,80.2527,309.4053,74.3544,308.3795,68.3237z M293.9897,82.0693
		c-2.2315,2.9393-5.1764,4.6346-8.8017,5.2694c-1.062,0.186-2.1272,0.1097-2.9716,0.2362c-4.0258,0.0374-7.2497-1.342-9.8664-4.1232
		c-0.9615-1.022-1.2515-2.2443-1.0768-3.6082c0.0478-0.3733,0.0848-0.7511,0.0854-1.127c0.0051-3.9265,0.1133-7.8575-0.0481-11.7773
		c-0.0761-1.848,0.6653-3.0201,1.9388-4.1575c6.1593-5.5011,15.5646-3.7313,20.0439,1.0626
		c2.0259,2.1682,2.8422,4.9158,3.3124,7.7523C297.2432,75.4415,296.3614,78.9453,293.9897,82.0693z"/>
	<path class="st0" d="M196.6053,89.2466c0.0015-12.7818-0.0033-25.5636,0.0167-38.3454c0.0014-0.8768-0.2407-1.4154-1.1838-1.4175
		c-2.9669-0.0068-5.9343-0.0285-8.9006,0.0132c-0.9804,0.0139-1.6573,0.4827-1.851,1.5759c-0.1144,0.646,0.0294,1.299-0.1826,2.0377
		c-0.3397-0.2302-0.6506-0.4239-0.9432-0.6421c-1.6843-1.2563-3.3771-2.4905-5.3747-3.2344
		c-3.5687-1.3291-7.213-1.2094-10.8802-0.5882c-5.7009,0.9656-10.5142,3.511-14.2462,7.9958
		c-5.6597,6.8015-7.1071,14.5799-5.407,23.0904c0.7971,3.9902,2.5385,7.5529,5.1661,10.6438
		c2.2039,2.5922,4.8243,4.7272,7.912,6.1971c4.1113,1.9574,8.4508,2.7115,13.0118,2.3611c2.7791-0.2135,5.3063-0.9988,7.6541-2.4953
		c1.0978-0.6997,1.943-1.7166,3.2026-2.4413c0,0.5583-0.02,0.9939,0.0036,1.4271c0.0892,1.6362,0.4645,2.2738,1.9905,2.3447
		c2.9927,0.139,5.9963,0.0718,8.9948,0.0394c0.7029-0.0076,1.053-0.4116,1.0344-1.2242
		C196.567,94.1396,196.605,91.6927,196.6053,89.2466z M184.6572,79.6453c0.165,2.654-1.0513,4.244-3.0027,5.6328
		c-3.7287,2.6537-7.8119,2.9307-12.1055,1.8788c-3.7687-0.9233-6.6642-3.0479-8.5945-6.4097
		c-1.2419-2.163-1.7919-4.5193-1.6342-6.8599c-0.1236-4.0936,0.9795-7.6084,3.8761-10.3399
		c2.6334-2.4832,5.8371-3.7515,9.4968-3.9717c3.4771-0.2092,6.5844,0.6677,9.3687,2.7083c1.2325,0.9033,2.2964,1.9437,2.655,3.5487
		c0.1912,0.8555-0.1398,1.63-0.1337,2.4512C184.6115,72.0721,184.4225,75.8714,184.6572,79.6453z"/>
</g>
</svg>
