<?xml version="1.0" encoding="utf-8"?>
<!-- Generator: Adobe Illustrator 24.0.1, SVG Export Plug-In . SVG Version: 6.00 Build 0)  -->
<svg version="1.1" id="Layer_1" xmlns="http://www.w3.org/2000/svg" xmlns:xlink="http://www.w3.org/1999/xlink" x="0px" y="0px"
	 viewBox="0 0 380.5255 58.3631" style="enable-background:new 0 0 380.5255 58.3631;" xml:space="preserve">
<style type="text/css">
	.st0{fill:#D2D2D2;}
	.st1{fill:#FEFEFE;}
	.st2{fill:#ADADAC;}
	.st3{fill:#B5B5B4;}
</style>
<g>
	<path class="st2" d="M34.9282,0c0.1477,5.927,0.3924,11.8534,0.4229,17.781c0.0628,12.1972,0.0132,24.3949,0.0015,36.5924
		c-0.0008,0.8124-0.0722,1.6246-0.109,2.3986c-5.8624,0.984-7,0.6348-8.4087-2.7879c-1.0124,0.5811-1.9955,1.1319-2.9656,1.7042
		c-8.6383,5.0959-17.4387,2.4132-21.4556-6.7241c-3.1798-7.2332-3.1986-14.6478-0.1704-21.9247
		c3.3994-8.1688,12.7947-12.1196,21.1492-9.1249c0.3862,0.1384,0.7756,0.2679,1.5632,0.5392c0-4.617,0.1718-9.0051-0.0653-13.3714
		c-0.1393-2.5659,0.7187-3.5516,3.2329-3.7772C30.0785,1.13,31.988,0.4537,33.9177,0C34.2545,0,34.5914,0,34.9282,0z
		 M24.9427,25.0937c-2.5173,0-4.9127-0.3735-7.1111,0.1193c-1.7299,0.3878-3.9003,1.4688-4.6928,2.8911
		c-3.3583,6.0277-3.728,12.4703-0.6997,18.7387c1.8882,3.9084,9.9487,4.0357,12.2403,0.4248
		c0.1681-0.2648,0.2519-0.6276,0.2526-0.9451C24.9461,39.4862,24.9427,32.6498,24.9427,25.0937z"/>
	<path class="st2" d="M198.6322,0c0,11.5863,0,23.1726,0,34.7588c0.2893,0.1279,0.5786,0.2558,0.8678,0.3837
		c4.7763-6.3474,9.5527-12.6949,14.535-19.3161c2.5453,1.7192,5.0651,3.4211,7.855,5.3054
		c-3.5773,4.5389-6.9178,8.9217-10.4338,13.1611c-1.2475,1.5041-1.2938,2.4956,0.0167,3.9877
		c3.9761,4.5273,7.7972,9.1887,11.8613,14.0147c-2.6757,2.0704-5.1481,3.9836-7.8416,6.0678
		c-5.3476-6.4527-10.6163-12.81-15.8849-19.1674c-0.2232,0.0412-0.4464,0.0825-0.6696,0.1238c0,5.8247,0,11.6495,0,17.6093
		c-3.6601,0-6.8258,0-10.2166,0c0-18.2436,0-36.4876,0-54.8607c2.9258-0.6799,5.913-1.374,8.9002-2.0681
		C197.9585,0,198.2953,0,198.6322,0z"/>
	<path class="st2" d="M276.4421,0c0.07,11.4455,0.1391,22.8909,0.2191,34.3363c0.001,0.1407,0.1409,0.2805,0.522,0.9921
		c4.9441-6.565,9.7237-12.9116,14.6803-19.4931c2.5202,1.6937,4.9935,3.3559,7.7343,5.1978
		c-1.1281,1.5369-2.1566,3.0099-3.2595,4.4258c-2.4192,3.106-4.8084,6.2395-7.3504,9.2445
		c-1.031,1.2188-0.9685,2.0243,0.0318,3.1792c3.4011,3.9269,6.7202,7.924,10.0515,11.9101c0.6851,0.8198,1.2873,1.7079,1.9737,2.626
		c-2.5853,1.991-5.0272,3.8717-7.713,5.9402c-5.4173-6.5237-10.7719-12.9718-16.1264-19.42
		c-0.204,0.0792-0.4079,0.1585-0.6119,0.2377c0,5.8739,0,11.7479,0,17.7552c-3.4862,0-6.6533,0-10.0399,0
		c0-18.2432,0-36.4862,0-54.8708C269.4621,1.386,272.4468,0.693,275.4316,0C275.7684,0,276.1053,0,276.4421,0z"/>
	<path class="st2" d="M380.5255,41.1317c-0.3565,1.1021-0.7126,2.2043-1.0697,3.3062c-2.8803,8.8889-9.7567,13.6874-18.8124,13.1279
		c-9.645-0.5959-16.2609-6.386-17.9681-15.6385c-0.9737-5.2769-0.2851-10.3164,2.0808-15.1039
		c5.3257-10.7764,19.3125-13.9707,28.7596-6.6289c3.0414,2.3636,4.7584,5.5529,5.9375,9.0995
		c0.3659,1.1007,0.7154,2.2067,1.0724,3.3103C380.5255,35.4468,380.5255,38.2893,380.5255,41.1317z M352.4822,37.3174
		c0.9375,3.2278,1.3731,6.2654,2.6781,8.8745c2.1765,4.3515,8.265,4.8208,11.5235,1.2032
		c4.2725-4.7434,4.4085-15.5054,0.2578-20.4029c-3.2067-3.7835-8.8708-3.5769-11.2162,0.7977
		C354.1574,30.7143,353.5272,34.1342,352.4822,37.3174z"/>
	<path class="st2" d="M134.5023,56.9568c-3.3125,0-6.5639,0-10.0435,0c0-12.8861,0-25.7073,0-38.5528
		c4.5402-1.3695,6.7443-0.6442,8.5488,3.0338c3.2553-2.7228,7.0552-4.0876,11.2329-4.3344
		c4.2938-0.2537,8.2549,0.4591,10.9753,4.4994c3.9968-3.1818,8.4802-4.7525,13.5416-4.5999
		c5.3545,0.1614,8.8698,2.5341,10.101,7.7318c0.8554,3.6111,1.0589,7.4219,1.1515,11.1533
		c0.1717,6.9239,0.0492,13.855,0.0492,20.9842c-3.6401,0-6.9562,0-10.6076,0c-0.074-1.0938-0.2298-2.3005-0.2251-3.5066
		c0.027-6.9373,0.1045-13.8745,0.129-20.8118c0.0032-0.9095-0.1213-1.8367-0.3195-2.7265c-0.7222-3.2411-1.917-4.1615-5.2542-4.1556
		c-5.8814,0.0104-6.5091,0.6257-6.5091,6.3803c0,7.3565,0,14.7131-0.0001,22.0696c0,0.8932,0,1.7864,0,2.8149
		c-3.6324,0-6.9547,0-10.6322,0c0-2.7586-0.0114-5.4044,0.0023-8.05c0.0304-5.8451,0.2456-11.6958,0.052-17.5333
		c-0.1339-4.0358-2.4322-5.7707-6.4818-5.5658c-5.4084,0.2737-5.4033,0.2737-5.4096,5.5646
		c-0.0099,8.2755-0.0268,16.5509-0.0485,24.8264C134.7543,56.3348,134.6572,56.4911,134.5023,56.9568z"/>
	<path class="st2" d="M107.0825,54.3502c-3.3505,1.1969-6.6071,2.8242-10.053,3.5007c-8.8047,1.7283-14.7179-2.6885-15.6084-11.5162
		c-0.3919-3.8849-0.2173-7.8293-0.2405-11.747c-0.0321-5.4123-0.008-10.8249-0.008-16.4177c3.6023,0,6.8345,0,10.3452,0
		c0.119,1.3689,0.348,2.7531,0.34,4.1359c-0.029,5.0102-0.1776,10.0197-0.1991,15.0298c-0.0107,2.4955-0.0386,5.0178,0.2946,7.4809
		c0.3867,2.8588,2.0379,4.1944,4.935,4.4233c1.082,0.0855,2.1949,0.0596,3.2697-0.0879c3.9775-0.546,4.5945-1.2741,4.6006-5.2162
		c0.0106-6.933-0.0017-13.866,0.034-20.7988c0.0082-1.5801,0.1732-3.1593,0.2778-4.9406c3.337,0,6.568,0,10.0244,0
		c0,12.7995,0,25.6807,0,38.5557C109.5103,57.8858,108.1783,57.4109,107.0825,54.3502z"/>
	<path class="st2" d="M249.0613,33.1033c0.9706-3.4531-0.4418-6.1014-3.871-7.0444c-3.649-1.0034-7.1638-0.1597-10.653,0.8619
		c-0.8836,0.2587-1.7499,0.5756-2.8767,0.9497c-0.8999-2.2127-1.7897-4.4007-2.705-6.6512
		c6.428-3.8572,13.0694-5.3767,20.213-3.6091c5.3741,1.3297,9.071,5.5357,9.5377,11.0388
		c0.3798,4.4783,0.2773,8.9996,0.3195,13.5025c0.0454,4.8356,0.0103,9.672,0.0103,14.4013
		c-4.9265,1.4212-7.0761,0.8033-8.4881-2.4865c-1.4529,0.7589-2.9164,1.4788-4.3368,2.2747
		c-3.0567,1.7129-6.3751,2.1708-9.7634,1.7321c-4.4716-0.5791-7.7652-2.9804-8.9316-7.3823
		c-2.257-8.5174,0.6116-15.6616,11.488-17.017C242.3191,33.2608,245.689,33.2823,249.0613,33.1033z M249.6917,43.5485
		c-0.4582-1.2861-0.5531-3.2734-1.4424-3.7276c-2.7362-1.3974-9.1096,0.4842-11.1662,2.8392
		c-1.8011,2.0624-1.5612,5.5985,0.6925,6.7866c3.3247,1.7526,6.4669,0.3112,9.6109-0.9216
		C249.8892,47.5438,249.1884,45.497,249.6917,43.5485z"/>
	<path class="st2" d="M73.7575,57.498c-3.1474-1.4943-7.2358,2.0169-8.2538-3.0121c-2.9916,1.0961-5.7986,2.4855-8.77,3.1444
		c-8.3955,1.8619-13.9885-1.6706-15.1228-9.2214c-1.2666-8.4316,3.3343-14.1467,12.0363-14.7219
		c3.2619-0.2156,6.5503-0.0349,9.6912-0.0349c1.4376-3.8942,0.0487-7.0859-3.6524-7.4612
		c-3.4151-0.3463-6.9465,0.3391-10.4157,0.6805c-0.9675,0.0952-1.896,0.5815-2.9443,0.9214
		c-0.3626-0.8567-0.6957-1.6106-1.0029-2.3747c-1.7902-4.4541-1.7807-4.4388,2.7424-6.5014
		c4.6814-2.1347,9.6096-2.4466,14.5789-1.6704c5.4968,0.8586,8.8075,4.2985,10.0601,9.5953
		c0.5546,2.345,0.9663,4.7779,1.0063,7.1781C73.8373,41.5994,73.7575,49.1824,73.7575,57.498z M64.0647,43.8625
		c0-0.9163,0.1247-1.8564-0.047-2.7398c-0.1024-0.5267-0.6252-1.3351-1.0358-1.3841c-3.9306-0.4697-7.7458-0.1805-10.8762,2.6074
		c-1.5072,1.3423-1.9256,3.0419-1.2158,4.9972c0.7279,2.0052,2.2207,2.9572,4.251,2.8176c1.731-0.119,3.4997-0.4091,5.1413-0.9523
		C63.9534,47.9941,64.0781,47.6933,64.0647,43.8625z"/>
	<path class="st2" d="M336.3835,56.8847c-6.3968,0.6761-6.6553,0.5921-7.7599-2.4046c-2.9415,1.0765-5.8046,2.4935-8.8353,3.1625
		c-8.2565,1.8226-13.9862-1.7705-14.995-9.0636c-1.1974-8.6562,3.169-14.2187,11.8172-14.8923
		c2.9301-0.2282,5.8838-0.2272,8.8258-0.2071c1.4578,0.01,1.927-0.5857,1.8883-1.9428c-0.0812-2.8502-1.6177-4.7889-4.5769-5.5119
		c-4.1101-1.0043-7.9904,0.052-11.8286,1.3986c-0.3944,0.1384-0.8019,0.24-1.4193,0.4225c-0.7414-1.756-1.5858-3.4658-2.1462-5.2629
		c-0.1645-0.5275,0.2827-1.6031,0.7784-1.9189c6.4984-4.1398,13.5355-4.9692,20.7449-2.4376
		c5.0242,1.7643,7.1831,6.2406,7.3921,11.0617C336.6649,38.4265,336.3835,47.5935,336.3835,56.8847z M327.5362,43.6179
		c-0.4432-1.3048-0.5072-3.3042-1.4004-3.7847c-2.7377-1.4728-9.3223,0.5136-11.333,2.9765
		c-1.6637,2.0379-1.3955,5.421,0.7692,6.604c3.3164,1.8123,6.453,0.3285,9.6005-0.8706
		C327.676,47.5892,327.094,45.572,327.5362,43.6179z"/>
</g>
</svg>
