<?xml version="1.0" encoding="utf-8"?>
<!-- Generator: Adobe Illustrator 24.0.1, SVG Export Plug-In . SVG Version: 6.00 Build 0)  -->
<svg version="1.1" id="Layer_1" xmlns="http://www.w3.org/2000/svg" xmlns:xlink="http://www.w3.org/1999/xlink" x="0px" y="0px"
	 viewBox="0 0 1928.9681 384.2166" style="enable-background:new 0 0 1928.9681 384.2166;" xml:space="preserve">
<style type="text/css">
	.st0{fill:#D3D3D3;}
</style>
<g>
	<path class="st0" d="M1717.5697,14.8535c3.8351,0.3739,7.6632,0.9619,11.5065,1.0865
		c22.7283,0.7369,44.9828,4.1843,66.5033,11.6526c24.1508,8.3811,45.057,21.3848,59.6742,42.9599
		c8.9803,13.2551,13.9512,27.9957,15.9902,43.8321c2.1096,16.384,1.6433,32.6214-2.7384,48.5745
		c-5.1078,18.5973-16.9,32.1598-33.8304,40.7915c-10.4799,5.3431-21.7996,9.0408-32.7186,13.5345
		c-1.3774,0.5668-2.6104,1.4833-3.9102,2.2379c1.0094,1.2325,1.7827,2.844,3.0647,3.6393
		c14.0635,8.7256,23.5588,21.7364,33.2517,34.6498c22.2255,29.6103,44.6323,59.0848,66.9618,88.6175
		c0.6179,0.8175,1.1907,1.6691,2.0697,2.9059c-1.3311,0.1453-2.2823,0.3397-3.2336,0.34
		c-49.8397,0.0146-99.6794-0.0078-149.5192,0.0665c-2.8344,0.0042-4.437-0.8832-5.822-3.407
		c-18.0551-32.8983-36.2189-65.7373-54.3669-98.5847c-1.0665-1.9304-2.1112-3.8953-3.4135-5.6625
		c-0.5093-0.6911-1.8385-1.3628-2.5444-1.1631c-0.7052,0.1995-1.3669,1.4409-1.5625,2.3317
		c-0.2733,1.2421-0.1089,2.5829-0.1089,3.8815c-0.0023,32.4709-0.0006,64.9418-0.0033,97.4126
		c-0.0004,5.1275-0.0089,5.1364-5.153,5.1367c-41.121,0.0025-82.2422,0.0027-123.3633-0.0004
		c-5.0381-0.0004-5.045-0.0112-5.0452-5.2426c-0.0013-107.9332,0.0009-215.8664-0.0172-323.7997
		c-0.0002-1.9304-0.2394-3.8608-0.3673-5.7912C1605.1058,14.8535,1661.3378,14.8535,1717.5697,14.8535z M1682.8237,134.8936
		c0,8.4291,0.1147,16.8606-0.0597,25.2861c-0.0643,3.1083,1.026,4.1349,4.0605,3.9796c7.6398-0.3911,15.3273-0.2045,22.9249-0.9596
		c7.9246-0.7876,15.751-2.657,21.7136-8.4917c8.241-8.0641,8.7693-18.0697,6.3247-28.5319
		c-2.4055-10.2952-9.7007-16.1908-19.5042-17.7975c-10.6833-1.7509-21.6407-1.8446-32.4813-2.6221
		c-2.8246-0.2026-3.0033,1.7118-2.9935,3.8499C1682.8468,118.0353,1682.8242,126.4645,1682.8237,134.8936z"/>
	<path class="st0" d="M32.5554,183.8073c0-53.9094-0.0006-107.8188,0.001-161.7282c0.0002-5.301,0.0063-5.307,5.3721-5.3072
		c40.2159-0.0018,80.432,0.0538,120.6474-0.0892c3.8431-0.0137,6.074,1.1472,8.206,4.365
		c39.3944,59.4571,78.9155,118.8307,118.4163,178.2175c0.8625,1.2966,1.6279,2.7366,2.7625,3.7474
		c0.8275,0.7372,2.1888,0.8774,3.3121,1.2838c0.3829-1.158,1.2553-2.4039,1.0653-3.4591
		c-0.8951-4.9714-1.9243-9.9312-3.1908-14.8215c-6.1224-23.6404-8.3016-47.7097-8.2455-72.0568
		c0.071-30.7866,0.0716-61.5738-0.0551-92.3601c-0.015-3.6532,0.8904-4.9219,4.7621-4.9092
		c40.3456,0.1323,80.692,0.1298,121.0377,0.0027c3.8035-0.012,4.8059,1.1384,4.8028,4.8555
		c-0.0901,108.3383-0.0873,216.6767-0.0079,325.015c0.0026,3.4808-0.8368,4.7389-4.5483,4.728
		c-40.7361-0.1198-81.4728-0.103-122.2092-0.0152c-2.8526,0.0062-4.4827-1.0699-6.0215-3.3139
		c-34.2372-49.9276-68.529-99.8177-102.8213-149.7076c-5.1513-7.4943-10.2842-15.0035-15.6045-22.3773
		c-0.9332-1.2934-2.7568-1.9467-4.1691-2.8956c-0.3202,1.729-1.1636,3.5502-0.8769,5.1724
		c2.0733,11.729,4.5915,23.3826,6.5115,35.1345c0.9361,5.7296,1.2212,11.6179,1.2373,17.4359
		c0.1067,38.4508,0.0614,76.9019,0.0623,115.353c0.0001,5.127-0.0088,5.1368-5.1689,5.1372
		c-39.9556,0.0028-79.9112,0.0025-119.8669,0.0006c-5.4031-0.0003-5.4096-0.0066-5.4098-5.2898
		C32.5548,291.8859,32.5554,237.8466,32.5554,183.8073z"/>
	<path class="st0" d="M856.7413,350.9926c-2.1487,0.0975-3.5347,0.2151-4.9207,0.2154
		c-44.8988,0.0096-89.7977-0.0395-134.6962,0.0944c-3.7559,0.0112-5.1242-1.3165-6.0833-4.7615
		c-3.1304-11.2437-6.7043-22.3636-9.9541-33.5754c-0.811-2.7976-2.124-3.9072-5.1727-3.8974
		c-32.4049,0.1042-64.8105,0.1196-97.2151-0.0175c-3.3764-0.0143-4.4939,1.3816-5.2259,4.2708
		c-2.8662,11.3124-5.9738,22.5641-8.8002,33.886c-0.7639,3.0596-2.1725,4.0855-5.3739,4.0782
		c-45.1589-0.1024-90.3181-0.068-135.4772-0.0782c-1.2534-0.0003-2.5069-0.1284-4.3195-0.2274
		c0.6957-2.0245,1.1704-3.596,1.7686-5.1192c41.8458-106.5596,83.7004-213.1158,125.558-319.6708
		c3.7018-9.4235,3.7136-9.4189,13.913-9.4189c45.1591,0,90.3186,0.0811,135.4767-0.1234c4.5982-0.0208,6.4948,1.4967,8.143,5.6007
		c41.6514,103.7113,83.4443,207.366,125.214,311.0299C851.8499,338.9214,854.1384,344.5586,856.7413,350.9926z M647.2042,230.9746
		c8.0649,0,16.1302,0.0373,24.1948-0.0156c4.1022-0.0269,4.5044-0.6491,3.5035-4.6435
		c-8.0615-32.1687-18.5484-63.7307-24.2385-96.5023c-0.2758-1.5884-2.2828-3.8721-3.7094-4.0523
		c-2.6786-0.3385-3.2236,2.2799-3.6277,4.5793c-1.4336,8.1578-2.5253,16.409-4.5449,24.4243
		c-5.9847,23.7513-12.3498,47.4072-18.5673,71.1001c-1.2382,4.7186-0.9788,5.088,3.9654,5.1062
		C631.8546,230.9994,639.5294,230.9785,647.2042,230.9746z"/>
	<path class="st0" d="M1234.3954,183.9845c0-53.9058-0.0009-107.8117,0.0013-161.7175c0.0002-5.4906,0.0087-5.4953,5.5984-5.4953
		c80.6868-0.001,161.3737-0.001,242.0604,0c5.5927,0.0001,5.5996,0.0045,5.6001,5.4804
		c0.0026,26.6282,0.0034,53.2564-0.0012,79.8845c-0.0009,5.0812-0.0138,5.0897-5.2209,5.0901
		c-35.1378,0.0027-70.2756,0.0003-105.4135,0.0027c-5.5048,0.0004-5.5248,0.0075-5.5391,5.6716
		c-0.0188,7.5338-0.0369,15.0679,0.0112,22.6014c0.03,4.6876,0.4518,5.0972,5.1742,5.0996
		c31.7542,0.0159,63.5083,0.0078,95.2626,0.0112c5.6354,0.0006,5.6461,0.0086,5.647,5.4973
		c0.004,25.1994-0.0667,50.3991,0.0754,75.5976c0.0211,3.7334-1.0726,4.8784-4.8522,4.8627
		c-32.144-0.1332-64.2891-0.0152-96.433-0.1569c-3.7883-0.0167-5.0237,1.1743-4.9423,4.8491
		c0.1785,8.0495,0.0242,16.1057,0.0662,24.1589c0.0262,5.0154,0.3484,5.318,5.288,5.3192
		c36.5693,0.0089,73.1387,0.0036,109.708,0.0074c5.1769,0.0005,5.1953,0.0122,5.1965,5.1557
		c0.0066,26.7581-0.0677,53.5165,0.0815,80.2738c0.0216,3.8696-0.9952,5.1257-5.0232,5.1203
		c-82.5087-0.1098-165.0175-0.113-247.5261,0.0066c-4.1757,0.006-4.897-1.4863-4.8899-5.2135
		C1234.428,292.056,1234.3955,238.0202,1234.3954,183.9845z"/>
	<path class="st0" d="M1203.7544,16.7709c-8.6305,19.7161-16.905,38.6137-25.1752,57.5133
		c-27.3744,62.5584-54.7454,125.1184-82.1217,187.6759c-12.491,28.543-25.0253,57.0672-37.4333,85.6461
		c-1.1528,2.6554-2.5941,3.6742-5.5212,3.667c-35.9202-0.0884-71.8408-0.1039-107.7608,0.0205
		c-3.2742,0.0113-4.5018-1.4619-5.6508-4.0949c-20.9772-48.072-42.0286-96.1119-63.0524-144.1637
		c-26.5399-60.6593-53.0699-121.323-79.5994-181.9869c-0.5085-1.1629-0.9572-2.3519-1.6375-4.0317
		c1.6432-0.0983,2.8738-0.236,4.1043-0.2363c44.5103-0.011,89.0207,0.0047,133.5311-0.0432c2.7002-0.0029,4.5409,0.304,5.5579,3.413
		c16.218,49.5753,32.9396,98.9909,48.6314,148.7305c4.4111,13.9823,5.9028,28.885,8.6765,43.3764
		c0.4371,2.2839,0.5706,4.6257,0.8424,6.941c0.2717,2.3139,0.9407,4.9385,3.6357,4.4838c1.3066-0.2204,2.861-2.826,3.1541-4.5469
		c1.6959-9.955,2.2571-20.165,4.6902-29.9189c4.4515-17.8448,9.601-35.5371,15.0672-53.1045
		c11.9116-38.2819,24.2565-76.4294,36.2595-114.6833c1.139-3.6302,2.7843-4.7552,6.5609-4.7437
		c44.2493,0.1349,88.4993,0.0865,132.749,0.0864C1200.5295,16.7709,1201.7968,16.7709,1203.7544,16.7709z"/>
</g>
</svg>
